# xmcd
#
# Track frame offsets:
#	150
#	9570
#	23152
#	39295
#	52662
#	62715
#	74590
#	88692
#	101412
#	116142
#	130965
#	143265
#	158860
#	174330
#	187925
#	200962
#	212822
#	225855
#
# Disc length: 3186
#
# Revision: 1
# Processed by: cddbd v1.5.1PL0 Copyright (c) Steve Scherf et al.
# Submitted via: CDex 1.50
# Normalized: r0:TDELIM( - )
#
DISCID=eb0c7012
DTITLE=Various Artist - Sophisticated Ladies
DYEAR=1999
DGENRE=Jazz
TTITLE0=Peggy Lee - Love and Marriage
TTITLE1=Judy Garland - Chicago
TTITLE2=Shirley Bassey - Something
TTITLE3=Jo Stafford - On The Sunny Side Of The Street
TTITLE4=Julie London - You'd Be So Nice To Come Home To
TTITLE5=Lena Horne - Girl From Ipanema
TTITLE6=Vikki Carr - Can't Take My Eyes Off You
TTITLE7=Andrews Sisters - Beer Barrel Polka
TTITLE8=Keely Smith - The Man I Love
TTITLE9=Helen Reddy - I Don't Know How To Love Him
TTITLE10=Dinah Shore - Buttons And Bows
TTITLE11=Nancy Wilson - Miss Ottis Regrets (She's Unable To Lunch Today)
TTITLE12=Nina Simone - Try A Little Tenderness
TTITLE13=Dinah Washington - Loverman (Oh Where Can You Be)
TTITLE14=Sarah Vaughan - Fly Me To The Moon
TTITLE15=Eve Boswell - Heatwave
TTITLE16=Kay Starr - Side By Side
TTITLE17=Alma Cogan - Cheek To Cheek
EXTD=YEAR: 1999
EXTT0=
EXTT1=
EXTT2=
EXTT3=
EXTT4=
EXTT5=
EXTT6=
EXTT7=
EXTT8=
EXTT9=
EXTT10=
EXTT11=
EXTT12=
EXTT13=
EXTT14=
EXTT15=
EXTT16=
EXTT17=
PLAYORDER=
